<svg xmlns="http://www.w3.org/2000/svg" viewBox="0 0 64 64" role="img" aria-label="NG favicon">
  <defs>
    <linearGradient id="bg" x1="0" y1="0" x2="1" y2="1">
      <stop offset="0%" stop-color="#4b39df"/>
      <stop offset="55%" stop-color="#d06bf0"/>
      <stop offset="100%" stop-color="#ffd77c"/>
    </linearGradient>
  </defs>
  <rect width="64" height="64" rx="10" fill="url(#bg)"/>

  <!-- N -->
  <rect x="8" y="16" width="4" height="32" fill="#fff"/>
  <rect x="12" y="16" width="4" height="4" fill="#fff"/>
  <rect x="16" y="20" width="4" height="4" fill="#fff"/>
  <rect x="20" y="24" width="4" height="4" fill="#fff"/>
  <rect x="24" y="28" width="4" height="4" fill="#fff"/>
  <rect x="28" y="32" width="4" height="4" fill="#fff"/>
  <rect x="24" y="36" width="4" height="4" fill="#fff"/>
  <rect x="28" y="40" width="4" height="4" fill="#fff"/>
  <rect x="32" y="16" width="4" height="32" fill="#fff"/>

  <!-- G -->
  <rect x="40" y="16" width="16" height="4" fill="#fff"/>
  <rect x="40" y="16" width="4" height="28" fill="#fff"/>
  <rect x="40" y="44" width="16" height="4" fill="#fff"/>
  <rect x="52" y="36" width="4" height="12" fill="#fff"/>
  <rect x="48" y="36" width="8" height="4" fill="#fff"/>
  <rect x="48" y="28" width="8" height="4" fill="#fff"/>
</svg>
